<svg xmlns="http://www.w3.org/2000/svg" viewBox="0 0 64 64" role="img" aria-hidden="true">
  <!-- Libro.UZ favicon — open book, app accent green -->
  <path
    fill="#35d07a"
    d="M6.5 14c0-1.7 1.1-3.1 2.8-3.4 4-.8 9.2-1.6 14.2-1.6 2 0 3.5 1.5 3.5 3.5v31.5c0 2.4-1.6 4.5-3.9 5.1-4 1.1-9.1 2.1-14.1 1.3-1.7-.3-2.9-1.8-2.9-3.5V14z"
  />
  <path
    fill="#35d07a"
    d="M57.5 14c0-1.7-1.1-3.1-2.8-3.4-4-.8-9.2-1.6-14.2-1.6-2 0-3.5 1.5-3.5 3.5v31.5c0 2.4 1.6 4.5 3.9 5.1 4 1.1 9.1 2.1 14.1 1.3 1.7-.3 2.9-1.8 2.9-3.5V14z"
  />
</svg>
